<svg width="199" height="223" viewBox="0 0 199 223" fill="none" xmlns="http://www.w3.org/2000/svg">
    <g filter="url(#filter0_i_7_3144)">
        <path d="M182 0L26.7241 118.258H85.0101L0 223L170.942 89.8195H112.195L182 0Z" fill="url(#paint0_linear_7_3144)"/>
        <path d="M182 0L26.7241 118.258H85.0101L0 223L170.942 89.8195H112.195L182 0Z" stroke="#2F9BFF"/>
    </g>
    <path d="M38.6184 100.967H18.4001V104.87C19.6637 104.895 21.5592 104.907 24.0865 104.907C28.4473 104.907 32.8824 104.833 37.3919 104.684V111.969C32.8824 111.795 28.1252 111.708 23.1202 111.708C21.0389 111.708 19.4655 111.721 18.4001 111.746V121H9.62888C9.8271 116.193 9.92621 111.696 9.92621 107.509C9.92621 103.321 9.8271 98.8243 9.62888 94.0175H38.6184V100.967ZM57.4003 111.969H41.4189V104.721H57.4003V111.969ZM91.3788 94.0546C91.2053 98.242 91.1186 102.727 91.1186 107.509C91.1186 112.316 91.2053 116.813 91.3788 121H78.0733L69.0792 100.707L69.7482 121H60.1965C60.3947 116.193 60.4938 111.696 60.4938 107.509C60.4938 103.346 60.3947 98.8614 60.1965 94.0546H73.8736L82.9049 114.905L82.2731 94.0546H91.3788ZM103.307 114.199C112.722 114.149 119.549 114.013 123.786 113.79C123.612 114.806 123.501 115.859 123.451 116.949C123.426 118.014 123.414 119.365 123.414 121H94.5359C94.7341 116.193 94.8332 111.696 94.8332 107.509C94.8332 103.321 94.7341 98.8243 94.5359 94.0175H123.414V100.745H103.307V104.312C104.496 104.337 106.256 104.35 108.585 104.35C112.524 104.35 116.6 104.275 120.812 104.127V110.519C116.6 110.371 112.524 110.296 108.585 110.296C106.256 110.296 104.496 110.309 103.307 110.333V114.199ZM151.86 110.854L153.793 94.0175H162.861L157.881 121H146.471L143.944 105.948L141.008 121H130.081L125.101 94.0175H134.169L136.065 110.631L139.038 94.0175H148.961L151.86 110.854ZM166.009 117.804C166.852 116.54 167.546 115.363 168.091 114.273C168.661 113.183 169.206 111.919 169.726 110.482C171.485 111.498 173.529 112.291 175.858 112.861C178.187 113.431 180.355 113.715 182.362 113.715C184.419 113.715 185.868 113.542 186.711 113.195C187.553 112.823 187.975 112.427 187.975 112.006C187.975 110.494 185.67 109.739 181.062 109.739C176.007 109.739 172.34 109.218 170.06 108.178C167.781 107.112 166.641 105.403 166.641 103.049C166.641 99.7039 168.029 97.2385 170.804 95.6528C173.579 94.067 177.184 93.2741 181.619 93.2741C184.196 93.2741 186.835 93.6086 189.535 94.2776C192.261 94.9218 194.714 95.8138 196.894 96.9536C196.176 98.5889 195.42 100.583 194.627 102.937C194.479 103.433 194.355 103.805 194.256 104.052C192.992 103.036 191.084 102.194 188.532 101.525C185.98 100.831 183.725 100.484 181.768 100.484C179.414 100.484 177.828 100.645 177.011 100.967C176.193 101.265 175.784 101.711 175.784 102.305C175.784 102.9 176.342 103.383 177.457 103.755C178.596 104.102 180.232 104.275 182.362 104.275C187.615 104.275 191.431 104.882 193.81 106.096C196.188 107.286 197.378 109.119 197.378 111.597C197.378 115.066 196.114 117.568 193.587 119.105C191.059 120.616 187.231 121.372 182.102 121.372C179.352 121.372 176.552 121.074 173.703 120.48C170.853 119.86 168.289 118.968 166.009 117.804Z" fill="white"/>
    <defs>
        <filter id="filter0_i_7_3144" x="0" y="0" width="182" height="230" filterUnits="userSpaceOnUse" color-interpolation-filters="sRGB">
            <feFlood flood-opacity="0" result="BackgroundImageFix"/>
            <feBlend mode="normal" in="SourceGraphic" in2="BackgroundImageFix" result="shape"/>
            <feColorMatrix in="SourceAlpha" type="matrix" values="0 0 0 0 0 0 0 0 0 0 0 0 0 0 0 0 0 0 127 0" result="hardAlpha"/>
            <feOffset dy="7"/>
            <feGaussianBlur stdDeviation="4"/>
            <feComposite in2="hardAlpha" operator="arithmetic" k2="-1" k3="1"/>
            <feColorMatrix type="matrix" values="0 0 0 0 0 0 0 0 0 0 0 0 0 0 0 0 0 0 0.25 0"/>
            <feBlend mode="normal" in2="shape" result="effect1_innerShadow_7_3144"/>
        </filter>
        <linearGradient id="paint0_linear_7_3144" x1="153.119" y1="26.162" x2="13.0266" y2="231.871" gradientUnits="userSpaceOnUse">
            <stop stop-color="#2F9BFF"/>
            <stop offset="0.482292" stop-color="#07539A"/>
            <stop offset="1" stop-color="#2477C3"/>
        </linearGradient>
    </defs>
</svg>
