<svg width="28" height="28" viewBox="0 0 28 28" fill="none" xmlns="http://www.w3.org/2000/svg">
<path fill-rule="evenodd" clip-rule="evenodd" d="M2.03705 0.0369873C0.932479 0.0369873 0.0370483 0.932419 0.0370483 2.03699V25.9629C0.0370483 27.0675 0.93248 27.9629 2.03705 27.9629H25.963C27.0675 27.9629 27.963 27.0675 27.963 25.9629V2.03699C27.963 0.932418 27.0675 0.0369873 25.963 0.0369873H2.03705ZM14.4259 10.7778C13.5975 10.7778 12.9259 11.4493 12.9259 12.2778V15.7222C12.9259 16.5506 13.5975 17.2222 14.4259 17.2222H22.1667C22.9951 17.2222 23.6667 16.5506 23.6667 15.7222V12.2778C23.6667 11.4493 22.9951 10.7778 22.1667 10.7778H14.4259Z" fill="white"/>
</svg>
